<svg width="24" height="24" viewBox="0 0 24 24" fill="none" xmlns="http://www.w3.org/2000/svg">
<g clip-path="url(#clip0_225_12358)">
<path d="M12 13.5C12.8284 13.5 13.5 12.8284 13.5 12C13.5 11.1716 12.8284 10.5 12 10.5C11.1716 10.5 10.5 11.1716 10.5 12C10.5 12.8284 11.1716 13.5 12 13.5Z" fill="white"/>
<path d="M15.2901 18.12L14.0001 16.78L13.9301 16.71L12.6601 15.44C12.4585 15.4753 12.2546 15.4954 12.0501 15.5C11.5863 15.5066 11.1257 15.421 10.6953 15.2481C10.2649 15.0751 9.87313 14.8184 9.54281 14.4927C9.21249 14.167 8.9502 13.779 8.77119 13.351C8.59218 12.9231 8.50002 12.4639 8.50007 12C8.50471 11.7954 8.52476 11.5915 8.56007 11.39L6.56007 9.39L5.00007 7.87C3.87139 8.93347 2.90448 10.1564 2.13007 11.5C2.0423 11.652 1.99609 11.8245 1.99609 12C1.99609 12.1755 2.0423 12.348 2.13007 12.5C2.76007 13.59 6.13007 19 12.0201 19H12.2701C13.3776 18.9671 14.4708 18.7404 15.5001 18.33L15.2901 18.12Z" fill="white"/>
<path d="M8.59 5.75999L11.39 8.55999C11.5915 8.52469 11.7954 8.50463 12 8.49999C12.9283 8.49999 13.8185 8.86874 14.4749 9.52512C15.1313 10.1815 15.5 11.0717 15.5 12C15.4954 12.2045 15.4753 12.4085 15.44 12.61L18.12 15.29L18.96 16.13C20.1028 15.0693 21.0834 13.8462 21.87 12.5C21.9578 12.348 22.004 12.1755 22.004 12C22.004 11.8245 21.9578 11.652 21.87 11.5C21.23 10.39 17.71 4.81999 11.73 4.99999C10.6225 5.03285 9.52924 5.25961 8.5 5.66999L8.59 5.75999Z" fill="white"/>
<path d="M20.7099 19.29L19.4099 18L17.4099 16L7.88994 6.47L6.41994 5L4.70994 3.29C4.6167 3.19676 4.50601 3.1228 4.38419 3.07234C4.26237 3.02188 4.1318 2.99591 3.99994 2.99591C3.86808 2.99591 3.73751 3.02188 3.61569 3.07234C3.49387 3.1228 3.38318 3.19676 3.28994 3.29C3.10164 3.47831 2.99585 3.7337 2.99585 4C2.99585 4.2663 3.10164 4.5217 3.28994 4.71L5.52994 7L7.27994 8.7L14.5899 16L14.6599 16.07L15.9999 17.41L16.5899 18L19.2899 20.71C19.3829 20.8037 19.4935 20.8781 19.6154 20.9289C19.7372 20.9797 19.8679 21.0058 19.9999 21.0058C20.132 21.0058 20.2627 20.9797 20.3845 20.9289C20.5064 20.8781 20.617 20.8037 20.7099 20.71C20.8037 20.617 20.8781 20.5064 20.9288 20.3846C20.9796 20.2627 21.0057 20.132 21.0057 20C21.0057 19.868 20.9796 19.7373 20.9288 19.6154C20.8781 19.4936 20.8037 19.383 20.7099 19.29Z" fill="white"/>
</g>
<defs>
<clipPath id="clip0_225_12358">
<rect width="24" height="24" fill="white"/>
</clipPath>
</defs>
</svg>
