<svg width="24" height="24" viewBox="0 0 24 24" fill="none" xmlns="http://www.w3.org/2000/svg">
<path d="M14.7825 19.3389C14.7825 20.3288 14.2547 21.0864 13.3977 21.5816C12.5409 22.0765 11.4851 22.0765 10.6299 21.5816C9.77258 21.0864 9.24512 20.3288 9.24512 19.3389" fill="white"/>
<path d="M12.0132 2.05548C12.7684 2.05548 13.3767 2.52108 13.3767 3.23708C13.3767 3.68775 13.3924 4.02402 13.6756 4.11015C16.0839 4.83735 17.6281 6.54188 17.6281 8.75548V12.476C17.6281 14.1806 18.3255 14.5256 19.2031 15.1776C20.474 16.1203 20.1839 18.0832 18.7255 18.0819H5.30145C3.84305 18.0832 3.55292 16.1203 4.82385 15.1776C5.70039 14.5256 6.39879 14.1806 6.39879 12.476V8.75548C6.39879 6.54188 7.94305 4.83735 10.3513 4.11015C10.6337 4.02402 10.6503 3.68775 10.6503 3.23708C10.6505 2.52108 11.2591 2.05548 12.0132 2.05548Z" fill="white"/>
</svg>
