<svg width="24" height="24" viewBox="0 0 24 24" fill="none" xmlns="http://www.w3.org/2000/svg">
<path d="M12 14.1104C11.6121 14.1104 11.2969 14.4256 11.2969 14.8136C11.2969 15.2016 11.6121 15.5168 12 15.5168C12.388 15.5168 12.7032 15.2016 12.7032 14.8136C12.7032 14.4256 12.388 14.1104 12 14.1104Z" fill="white"/>
<path d="M16.219 9.89133H7.462C4.91969 9.89133 2.85864 11.9523 2.85864 14.4947C2.85864 18.8375 5.74052 22.8733 9.98646 23.7853C15.9005 25.0556 21.1412 20.5114 21.1412 14.8135C21.1412 12.0951 18.9375 9.89133 16.219 9.89133ZM12.7031 16.7936V20.4859C12.7031 20.8745 12.3886 21.189 11.9999 21.189C11.6112 21.189 11.2968 20.8745 11.2968 20.4859V16.7936C10.4801 16.5023 9.89041 15.7291 9.89041 14.8136C9.89041 13.6503 10.8367 12.7041 11.9999 12.7041C13.1632 12.7041 14.1094 13.6503 14.1094 14.8136C14.1094 15.7291 13.5198 16.5023 12.7031 16.7936Z" fill="white"/>
<path d="M12 0C8.49819 0 5.67139 2.82675 5.67139 6.32859V8.78808C6.24073 8.60869 6.8345 8.48503 7.46229 8.48503H8.48412V6.32859C8.48412 4.38783 10.0592 2.81273 12 2.81273C13.9408 2.81273 15.5158 4.38783 15.5158 6.32859V8.48498H16.219C16.9623 8.48498 17.6654 8.63733 18.3285 8.87377V6.32859C18.3286 2.83012 15.4949 0 12 0Z" fill="white"/>
</svg>
