<svg width="24" height="24" viewBox="0 0 24 24" fill="none" xmlns="http://www.w3.org/2000/svg">
<g clip-path="url(#clip0_225_12352)">
<path d="M6.07375 23.9796L6.5156 23.8561C6.9406 23.7373 7.18884 23.2965 7.07008 22.8715L2.01837 4.79336C1.94709 4.53823 1.77737 4.32187 1.54656 4.19188C1.31575 4.06189 1.04275 4.02892 0.787628 4.10021L0.730566 4.11614C0.199267 4.26459 -0.1111 4.81563 0.0373391 5.34693L5.08917 23.4251C5.20793 23.8501 5.64874 24.0983 6.07375 23.9796Z" fill="white"/>
<path d="M23.8635 11.3462C22.2614 10.5474 20.7794 9.52779 19.4607 8.31722C19.3498 8.21575 19.3065 8.05999 19.349 7.91584C20.0024 5.44392 20.4876 2.93059 20.8014 0.393089C20.851 -0.0289796 20.6235 -0.153117 20.3835 0.136537C15.6745 5.76826 7.5269 -0.893807 2.67725 4.22481C2.73547 4.33382 2.78127 4.44903 2.8138 4.56826L6.09104 16.3034C10.949 11.2469 19.0676 17.8676 23.7683 12.2483C24.0083 11.9586 24.0538 11.4289 23.8635 11.3462Z" fill="white"/>
</g>
<defs>
<clipPath id="clip0_225_12352">
<rect width="24" height="24" fill="white"/>
</clipPath>
</defs>
</svg>
