<svg width="24" height="24" viewBox="0 0 24 24" fill="none" xmlns="http://www.w3.org/2000/svg">
<g clip-path="url(#clip0_225_12350)">
<path d="M21.616 2.85389L12.2021 0.0296719C12.0703 -0.00989062 11.9298 -0.00989062 11.798 0.0296719L2.38386 2.85389C2.08648 2.94309 1.88281 3.21684 1.88281 3.52734V13.8828C1.88281 15.2297 2.42811 16.6085 3.50347 17.9808C4.32477 19.029 5.46106 20.0814 6.88067 21.1091C9.26553 22.8354 11.6139 23.8944 11.7127 23.9386C11.8041 23.9795 11.9021 24 12 24C12.098 24 12.196 23.9796 12.2873 23.9386C12.3861 23.8944 14.7344 22.8354 17.1193 21.1091C18.5389 20.0814 19.6752 19.029 20.4965 17.9808C21.5719 16.6085 22.1171 15.2297 22.1171 13.8828V3.52734C22.1171 3.21684 21.9135 2.94309 21.616 2.85389Z" fill="white"/>
</g>
<defs>
<clipPath id="clip0_225_12350">
<rect width="24" height="24" fill="white"/>
</clipPath>
</defs>
</svg>
