<svg width="24" height="24" viewBox="0 0 24 24" fill="none" xmlns="http://www.w3.org/2000/svg">
<g clip-path="url(#clip0_225_12339)">
<path d="M18.26 3H5.74C5.01331 3 4.31638 3.28868 3.80253 3.80253C3.28868 4.31638 3 5.01331 3 5.74V18.26C3 18.9867 3.28868 19.6836 3.80253 20.1975C4.31638 20.7113 5.01331 21 5.74 21H18.26C18.9867 21 19.6836 20.7113 20.1975 20.1975C20.7113 19.6836 21 18.9867 21 18.26V5.74C21 5.01331 20.7113 4.31638 20.1975 3.80253C19.6836 3.28868 18.9867 3 18.26 3ZM7 11H5V9H7V11ZM5 13H7V15H5V13ZM19 11H17V9H19V11ZM17 13H19V15H17V13ZM19 5.74V7H17V5H18.26C18.3572 5 18.4534 5.01914 18.5432 5.05633C18.633 5.09352 18.7145 5.14803 18.7833 5.21674C18.852 5.28546 18.9065 5.36703 18.9437 5.45681C18.9809 5.5466 19 5.64282 19 5.74ZM5.74 5H7V7H5V5.74C5 5.64282 5.01914 5.5466 5.05633 5.45681C5.09352 5.36703 5.14803 5.28546 5.21674 5.21674C5.28546 5.14803 5.36703 5.09352 5.45681 5.05633C5.5466 5.01914 5.64282 5 5.74 5ZM5 18.26V17H7V19H5.74C5.64282 19 5.5466 18.9809 5.45681 18.9437C5.36703 18.9065 5.28546 18.852 5.21674 18.7833C5.14803 18.7145 5.09352 18.633 5.05633 18.5432C5.01914 18.4534 5 18.3572 5 18.26ZM19 18.26C19 18.4563 18.922 18.6445 18.7833 18.7833C18.6445 18.922 18.4563 19 18.26 19H17V17H19V18.26Z" fill="white"/>
</g>
<defs>
<clipPath id="clip0_225_12339">
<rect width="24" height="24" fill="white"/>
</clipPath>
</defs>
</svg>
