<svg width="24" height="24" viewBox="0 0 24 24" fill="none" xmlns="http://www.w3.org/2000/svg">
<g clip-path="url(#clip0_225_12363)">
<path d="M17.56 21C17.4001 21.0006 17.2423 20.9629 17.1 20.89L12 18.22L6.90001 20.89C6.7344 20.9771 6.54768 21.0159 6.36108 21.0022C6.17448 20.9884 5.99549 20.9226 5.84444 20.8122C5.69339 20.7018 5.57635 20.5512 5.50662 20.3776C5.4369 20.2039 5.41728 20.0142 5.45001 19.83L6.45001 14.2L2.33001 10.2C2.20146 10.0717 2.11028 9.91086 2.06623 9.73468C2.02219 9.55851 2.02695 9.37366 2.08001 9.19999C2.13797 9.02226 2.24458 8.86434 2.38776 8.74415C2.53093 8.62395 2.70493 8.5463 2.89001 8.51999L8.59001 7.68999L11.1 2.55999C11.1819 2.39092 11.3097 2.24833 11.4689 2.14856C11.6281 2.0488 11.8122 1.99588 12 1.99588C12.1879 1.99588 12.3719 2.0488 12.5311 2.14856C12.6903 2.24833 12.8181 2.39092 12.9 2.55999L15.44 7.67999L21.14 8.50999C21.3251 8.5363 21.4991 8.61395 21.6423 8.73415C21.7854 8.85434 21.8921 9.01226 21.95 9.18999C22.0031 9.36366 22.0078 9.54851 21.9638 9.72468C21.9197 9.90086 21.8286 10.0617 21.7 10.19L17.58 14.19L18.58 19.82C18.6157 20.0075 18.597 20.2012 18.5261 20.3784C18.4553 20.5556 18.3352 20.7089 18.18 20.82C17.9989 20.9469 17.7809 21.0102 17.56 21Z" fill="white"/>
</g>
<defs>
<clipPath id="clip0_225_12363">
<rect width="24" height="24" fill="white"/>
</clipPath>
</defs>
</svg>
