<svg width="24" height="24" viewBox="0 0 24 24" fill="none" xmlns="http://www.w3.org/2000/svg">
<g clip-path="url(#clip0_225_12329)">
<path d="M12 2C6.50742 2 2 6.50742 2 12C2 17.4926 6.50742 22 12 22C17.4926 22 22 17.4926 22 12C22 6.50742 17.4926 2 12 2ZM13.1719 16.6875C13.1719 17.3335 12.646 17.8594 12 17.8594C11.354 17.8594 10.8281 17.3335 10.8281 16.6875V10.8281C10.8281 10.1821 11.354 9.65625 12 9.65625C12.646 9.65625 13.1719 10.1821 13.1719 10.8281V16.6875ZM12 8.48438C11.354 8.48438 10.8281 7.95852 10.8281 7.3125C10.8281 6.66648 11.354 6.14062 12 6.14062C12.646 6.14062 13.1719 6.66648 13.1719 7.3125C13.1719 7.95852 12.646 8.48438 12 8.48438Z" fill="white"/>
</g>
<defs>
<clipPath id="clip0_225_12329">
<rect width="20" height="20" fill="white" transform="translate(2 2)"/>
</clipPath>
</defs>
</svg>
